<svg xmlns="http://www.w3.org/2000/svg" id="Layer_1" viewBox="0 0 32 32"><script xmlns="" id="eppiocemhmnlbhjplcgkofciiegomcon"/><script xmlns=""/><script xmlns=""/><defs><style>.cls-1{fill:#faa21b;}.cls-2{fill:#51b648;}</style></defs><path class="cls-1" d="m15.95,20.89h-6.45c-3.89-.04-2.96-6.76-2.96-6.76,0-.12-.1-.22-.22-.22h-2.26c-1.3,0-2.37,1.28-2.37,2.85v4.94c0,1.57,1.07,2.85,2.37,2.85h.23c.42,0,1.13,0,.59.79l-.24.31c-.45.53-.29.93.78.35,0,0,1.99-1.27,2.34-1.43.03-.01.05-.01.08-.01h6.11c3.28.08,2.49-3.68,2-3.65Z"/><path class="cls-2" d="m26.36,6.24h-15.26c-2.01,0-3.66,1.65-3.66,3.66v6.34c0,2.01,1.65,3.66,3.66,3.66h9.51c.95.96,4.31,2.32,4.31,2.32.94.4.79-.42.62-.63l-.44-.68c-.71-1.14.26-1.01.91-1.01h.35c2.01,0,3.66-1.65,3.66-3.66v-6.34c0-2.01-1.65-3.66-3.66-3.66Zm-9.68,3.8h-3.04v1.84h2.83v1.45h-2.83v2.16h3.04v1.46h-4.81v-8.36h4.81v1.45Zm9.16,6.91h-2.25l-3.64-6.32h-.05c.07,1.12.11,1.91.11,2.39v3.93h-1.58v-8.36h2.24l3.63,6.26h.04c-.06-1.09-.09-1.85-.09-2.3v-3.96h1.6v8.36Z"/></svg>